# xmcd CD database file
#
# Track frame offsets:
#	150
#	12709
#	23181
#	35874
#	49237
#	61751
#	72788
#	91022
#	103250
#	117234
#	133558
#	145060
#	160241
#	178068
#	193458
#	212967
#	225547
#	240238
#	257440
#	268828
#	287710
#	298718
#	314115
#	326177
#	339834
#	351618
#	366438
#	380460
#	395492
#	409756
#	420541
#
# Disc length: 5775 seconds
#
# Revision: 0
# Processed by: cddbd v1.5.2PL0 Copyright (c) Steve Scherf et al.
# Submitted via: CDex 1.51
#
DISCID=f9168d1f
DTITLE=Lynn Anderson - The Ultimate Collection CD1
DYEAR=2008
DGENRE=Country
TTITLE0=How Can I Unlove You
TTITLE1=Fool Me
TTITLE2=Listen to a Country Song (Live)
TTITLE3=How Can I Unlove You (Live)
TTITLE4=Stand By Your Man
TTITLE5=Silver Threads and Golden Needles
TTITLE6=Under the Boardwalk (Live)
TTITLE7=You Don't Have to Say You Love Me
TTITLE8=Rocky Top (Live)
TTITLE9=The Devil Went Down to Georgia
TTITLE10=Foggy Mountain Breakdown (Live)
TTITLE11=We've Only Just Begun
TTITLE12=Close to You
TTITLE13=Could I Have This Dance
TTITLE14=Love Has No Pride
TTITLE15=I've Never Loved Anyone More
TTITLE16=Rose Garden (Live)
TTITLE17=Blue Bayou
TTITLE18=Ride, Ride, Ride (Live)
TTITLE19=Just Like Jesse James
TTITLE20=If I Kiss You
TTITLE21=Desperado
TTITLE22=That'll Be the Day
TTITLE23=What a Man My Man Is (Live)
TTITLE24=Listen to a Country Song
TTITLE25=Gone At Last
TTITLE26=Paradise
TTITLE27=Cry (Live)
TTITLE28=Two Doors Down
TTITLE29=Heartbreak Hotel
TTITLE30=It Must Be Love
EXTD=YEAR: 2008
EXTT0=
EXTT1=
EXTT2=
EXTT3=
EXTT4=
EXTT5=
EXTT6=
EXTT7=
EXTT8=
EXTT9=
EXTT10=
EXTT11=
EXTT12=
EXTT13=
EXTT14=
EXTT15=
EXTT16=
EXTT17=
EXTT18=
EXTT19=
EXTT20=
EXTT21=
EXTT22=
EXTT23=
EXTT24=
EXTT25=
EXTT26=
EXTT27=
EXTT28=
EXTT29=
EXTT30=
PLAYORDER=
